<svg width="1000" height="777" viewBox="0 0 1000 777" fill="none" xmlns="http://www.w3.org/2000/svg">
<g style="mix-blend-mode:multiply" clip-path="url(#clip0_1971_28414)">
<path d="M696.994 0.283829L664.397 81.3867C661.591 88.3556 656.784 94.3238 650.589 98.528C644.395 102.732 637.095 104.981 629.624 104.987H371.303C363.827 104.978 356.524 102.729 350.323 98.5255C344.123 94.3221 339.307 88.3556 336.49 81.3867L303.812 0.0402832C125.191 61.719 0 205.068 0 372.059C0 595.376 223.87 776.438 500 776.438C776.13 776.438 1000 595.376 1000 372.059C1000 205.271 875.171 62.1247 696.994 0.283829Z" fill="#1F0061"/>
<path d="M666.051 252.717C650.335 252.727 635.265 259.015 624.151 270.199C613.038 281.384 606.79 296.55 606.779 312.368V457.055C606.779 472.875 613.024 488.048 624.14 499.235C635.255 510.421 650.331 516.706 666.051 516.706C681.771 516.706 696.847 510.421 707.962 499.235C719.078 488.048 725.322 472.875 725.322 457.055V312.368C725.312 296.55 719.064 281.384 707.95 270.199C696.837 259.015 681.768 252.727 666.051 252.717Z" fill="white"/>
<path d="M553.187 595.254C553.187 620.64 529.736 641.158 500.805 641.158C471.875 641.158 448.424 620.64 448.424 595.254" fill="#1F0061"/>
<path d="M500.81 651.296C466.4 651.296 438.355 626.155 438.355 595.254H458.502C458.502 615.003 477.48 631.021 500.81 631.021C524.14 631.021 543.158 615.003 543.158 595.254H563.305C563.305 626.155 535.261 651.296 500.81 651.296Z" fill="white"/>
<path d="M333.955 252.717C326.171 252.717 318.464 254.259 311.273 257.257C304.082 260.255 297.548 264.648 292.044 270.188C286.54 275.727 282.174 282.303 279.195 289.54C276.217 296.777 274.684 304.534 274.684 312.368V457.055C274.684 472.875 280.928 488.048 292.044 499.235C303.159 510.421 318.235 516.706 333.955 516.706C349.675 516.706 364.751 510.421 375.866 499.235C386.982 488.048 393.226 472.875 393.226 457.055V312.368C393.216 296.55 386.968 281.384 375.855 270.199C364.741 259.015 349.671 252.727 333.955 252.717Z" fill="white"/>
</g>
<defs>
<clipPath id="clip0_1971_28414">
<rect width="1000" height="776.397" fill="white"/>
</clipPath>
</defs>
</svg>
