<svg width="1000" height="777" viewBox="0 0 1000 777" fill="none" xmlns="http://www.w3.org/2000/svg">
<g clip-path="url(#clip0_1971_28408)">
<path fill-rule="evenodd" clip-rule="evenodd" d="M664.398 81.3854L696.995 0.282609C875.172 62.1235 1000 205.27 1000 372.058C1000 595.374 776.131 776.436 500.001 776.436C223.87 776.436 0.000732422 595.374 0.000732422 372.058C0.000732422 205.067 125.192 61.7178 303.813 0.0390625L336.49 81.3854C339.308 88.3544 344.124 94.3209 350.324 98.5243C356.524 102.728 363.828 104.977 371.304 104.986H629.624C637.096 104.98 644.396 102.731 650.59 98.5267C656.784 94.3225 661.592 88.3543 664.398 81.3854ZM334.271 256C326.488 256 318.78 257.543 311.589 260.54C304.398 263.538 297.864 267.932 292.36 273.471C286.856 279.01 282.491 285.586 279.512 292.823C276.533 300.061 275 307.817 275 315.651V460.338C275 476.159 281.245 491.331 292.36 502.518C303.476 513.705 318.552 519.99 334.271 519.99C349.991 519.99 365.067 513.705 376.183 502.518C387.298 491.331 393.543 476.159 393.543 460.338V315.651C393.532 299.834 387.284 284.667 376.171 273.483C365.058 262.298 349.988 256.011 334.271 256ZM624.469 273.483C635.582 262.298 650.652 256.011 666.368 256C682.085 256.011 697.154 262.298 708.268 273.483C719.381 284.667 725.629 299.834 725.64 315.651V460.338C725.64 476.159 719.395 491.331 708.279 502.518C697.164 513.705 682.088 519.99 666.368 519.99C650.648 519.99 635.572 513.705 624.457 502.518C613.341 491.331 607.096 476.159 607.096 460.338V315.651C607.107 299.834 613.355 284.667 624.469 273.483ZM438.356 595.254C438.356 626.154 466.401 651.296 500.811 651.296C535.262 651.296 563.306 626.154 563.306 595.254H543.159C543.159 615.002 524.141 631.02 500.811 631.02C477.481 631.02 458.503 615.002 458.503 595.254H438.356Z" fill="#1F0061"/>
</g>
<defs>
<clipPath id="clip0_1971_28408">
<rect width="1000" height="776.397" fill="#1F0061"/>
</clipPath>
</defs>
</svg>
