<svg width="1000" height="781" viewBox="0 0 1000 781" fill="none" xmlns="http://www.w3.org/2000/svg">
<path d="M982.157 373.212C974.075 287.756 946.426 25.3694 946.035 15.6142C945.589 4.18669 929.312 -10.3632 929.312 10.7638C929.312 25.3688 916.157 193.103 916.157 314.458C914.763 312.395 913.927 311.28 913.927 311.28H883.825C829.753 178.33 686.101 81.8373 515.412 75.9841H511.566H507.775C504.877 75.9841 502.201 75.9841 498.967 75.9841C495.957 75.9841 493.059 75.9841 490.16 75.9841H486.37H482.635C311.891 81.5586 168.182 178.33 114.111 311.28H86.2385L84.0644 314.458C84.0644 193.103 70.8531 25.3688 70.8531 10.7638C70.8531 -10.3632 54.5758 4.18669 54.1299 15.6142C53.7954 25.3694 26.258 287.756 18.0636 373.212C6.19754 389.045 -0.147109 408.335 0.00258947 428.12C0.00258947 459.727 20.9065 493.397 46.6046 493.397C53.1375 511.651 62.0398 528.968 73.083 544.904H114.389C170.133 682.146 321.422 780.534 499.023 780.534C676.624 780.534 827.913 682.146 883.657 544.904H926.971C937.989 528.953 946.889 511.639 953.449 493.397C979.147 493.397 999.995 459.95 999.995 428.12C1000.2 408.362 993.933 389.079 982.157 373.212V373.212ZM498.967 756.732C314.566 756.732 165.117 636.658 165.117 488.49C165.117 377.671 248.732 282.572 367.969 241.655L389.765 295.617C391.64 300.245 394.854 304.208 398.995 306.998C403.137 309.789 408.017 311.279 413.01 311.28H585.482C590.476 311.279 595.356 309.789 599.497 306.998C603.638 304.208 606.852 300.245 608.728 295.617L630.468 241.879C749.426 282.906 832.763 377.838 832.763 488.49C832.763 636.658 683.313 756.732 498.967 756.732Z" fill="#1F0061"/>
<path d="M609.783 409.502C599.286 409.502 589.22 413.672 581.798 421.094C574.375 428.517 570.205 438.584 570.205 449.081V545.072C570.205 555.569 574.375 565.636 581.798 573.058C589.22 580.481 599.286 584.649 609.783 584.649C620.28 584.649 630.347 580.481 637.77 573.058C645.192 565.636 649.362 555.569 649.362 545.072V449.081C649.362 438.584 645.192 428.517 637.77 421.094C630.347 413.672 620.28 409.502 609.783 409.502V409.502Z" fill="#1F0061"/>
<path d="M499.47 673.782C476.503 673.782 457.773 657.06 457.773 636.602H471.263C471.263 649.701 483.917 660.349 499.47 660.349C515.023 660.349 527.732 649.701 527.732 636.602H541.222C541.222 657.115 522.492 673.782 499.47 673.782Z" fill="#1F0061"/>
<path d="M388.094 409.502C377.598 409.502 367.53 413.672 360.108 421.094C352.686 428.517 348.516 438.584 348.516 449.081V545.072C348.516 555.569 352.686 565.636 360.108 573.058C367.53 580.481 377.598 584.649 388.094 584.649C398.591 584.649 408.658 580.481 416.08 573.058C423.503 565.636 427.673 555.569 427.673 545.072V449.081C427.673 438.584 423.503 428.517 416.08 421.094C408.658 413.672 398.591 409.502 388.094 409.502Z" fill="#1F0061"/>
</svg>
