<svg width="1522" height="212" viewBox="0 0 1522 212" fill="none" xmlns="http://www.w3.org/2000/svg">
<path d="M266.153 101.135C263.963 77.9777 256.47 6.87474 256.365 4.23122C256.244 1.13453 251.833 -2.80827 251.833 2.91684C251.833 6.87457 248.268 52.328 248.268 85.2133C247.89 84.6544 247.664 84.3522 247.664 84.3522H239.506C224.853 48.3248 185.925 22.1767 139.671 20.5906H138.628H137.601C136.816 20.5906 136.09 20.5906 135.214 20.5906C134.399 20.5906 133.613 20.5906 132.828 20.5906H131.801H130.788C84.5187 22.1012 45.5755 48.3248 30.9226 84.3522H23.3696L22.7805 85.2133C22.7805 52.328 19.2004 6.87457 19.2004 2.91684C19.2004 -2.80827 14.7894 1.13453 14.6686 4.23122C14.5779 6.87474 7.11561 77.9777 4.89503 101.135C1.67946 105.426 -0.0398648 110.653 0.000701715 116.014C0.000701715 124.579 5.66543 133.703 12.6293 133.703C14.3997 138.65 16.8121 143.343 19.8046 147.661H30.9981C46.1041 184.851 87.1017 211.513 135.229 211.513C183.357 211.513 224.355 184.851 239.461 147.661H251.198C254.184 143.338 256.596 138.647 258.374 133.703C265.337 133.703 270.987 124.64 270.987 116.014C271.042 110.66 269.344 105.435 266.153 101.135V101.135ZM135.214 205.063C85.2437 205.063 44.7447 172.525 44.7447 132.374C44.7447 102.343 67.4035 76.5727 99.7152 65.485L105.622 80.1077C106.13 81.3619 107.001 82.4358 108.123 83.192C109.245 83.9482 110.568 84.352 111.921 84.3522H158.659C160.012 84.352 161.335 83.9482 162.457 83.192C163.579 82.4358 164.45 81.3619 164.958 80.1077L170.85 65.5455C203.086 76.6634 225.669 102.389 225.669 132.374C225.669 172.525 185.17 205.063 135.214 205.063Z" fill="#000000"/>
<path d="M165.245 110.969C162.4 110.969 159.672 112.099 157.661 114.11C155.65 116.121 154.52 118.85 154.52 121.694V147.706C154.52 150.551 155.65 153.279 157.661 155.29C159.672 157.301 162.4 158.431 165.245 158.431C168.089 158.431 170.817 157.301 172.829 155.29C174.84 153.279 175.97 150.551 175.97 147.706V121.694C175.97 118.85 174.84 116.121 172.829 114.11C170.817 112.099 168.089 110.969 165.245 110.969V110.969Z" fill="#000000"/>
<path d="M105.169 110.969C102.324 110.969 99.5961 112.099 97.5848 114.11C95.5734 116.121 94.4434 118.85 94.4434 121.694V147.706C94.4434 150.551 95.5734 153.279 97.5848 155.29C99.5961 157.301 102.324 158.431 105.169 158.431C108.013 158.431 110.741 157.301 112.752 155.29C114.764 153.279 115.894 150.551 115.894 147.706V121.694C115.894 118.85 114.764 116.121 112.752 114.11C110.741 112.099 108.013 110.969 105.169 110.969Z" fill="#000000"/>
<path d="M135.35 182.585C129.127 182.585 124.051 178.054 124.051 172.51H127.707C127.707 176.06 131.136 178.945 135.35 178.945C139.565 178.945 143.009 176.06 143.009 172.51H146.665C146.665 178.069 141.589 182.585 135.35 182.585Z" fill="#000000" stroke="#000000" stroke-width="0.755291" stroke-miterlimit="10"/>
<path d="M330.855 115.671C330.855 68.8011 360.468 35.4326 408.666 35.4326C448.899 35.4326 476.55 58.8596 483.173 98.4282H456.019C451.162 74.1108 433.255 59.2972 408.711 59.2972C377.545 59.2972 358.084 81.186 358.084 115.671C358.084 151.046 377.545 172.708 408.711 172.708C433.693 172.708 451.162 158.332 456.019 133.803H483.173C476.098 174.036 449.125 196.799 408.666 196.799C361.132 196.769 330.855 164.064 330.855 115.671Z" fill="#000000"/>
<path d="M631.28 193.466V27.6646H657.363V193.466H631.28Z" fill="#000000"/>
<path d="M680.37 193.466V27.6646H706.453V193.466H680.37Z" fill="#000000"/>
<path d="M723.301 160.927C723.528 133.517 750.711 127.739 773.475 125.114C791.17 123.123 804.204 122.46 804.43 113.182C804.204 101.687 795.379 94.1747 780.294 94.1747C764.816 94.1747 753.759 102.562 752.22 114.736H725.911C728.34 89.9657 750.44 72.7231 780.731 72.7231C812.411 72.7231 829.805 89.9656 829.805 114.962V168.017C829.805 171.336 831.585 173.1 835.552 173.1H841.964V193.451H829.593C817.646 193.451 810.36 188.578 808.368 179.738C807.868 178.451 807.499 177.117 807.267 175.756C800.403 188.367 787.581 195.879 767.698 195.879C740.725 195.894 723.03 182.846 723.301 160.927ZM804.43 149.432V133.08C800.01 139.928 788.742 141.482 776.357 143.02C761.769 144.801 749.61 146.777 749.61 159.162C749.61 169.329 757.787 175.303 773.038 175.303C790.899 175.333 804.386 165.166 804.386 149.462L804.43 149.432Z" fill="#000000"/>
<path d="M878.683 172.679L876.254 193.466H855.255V27.6646H881.337V91.5352C889.74 80.0402 903.664 72.7391 920.243 72.7391C951.198 72.7391 973.042 97.9461 973.042 134.196C973.042 171.109 951.153 196.755 919.986 196.755C901.446 196.77 885.969 187.492 878.683 172.679ZM946.325 134.211C946.325 110.995 933.292 94.869 914.284 94.869C895.051 94.869 881.337 110.784 881.337 133.548C881.337 157.684 895.051 174.67 914.284 174.67C933.277 174.67 946.311 158.091 946.311 134.211H946.325Z" fill="#000000"/>
<path d="M1038.06 193.466V38.7373H1064.6V169.616H1143.52V193.496L1038.06 193.466Z" fill="#000000"/>
<path d="M1153.9 160.927C1154.13 133.517 1181.33 127.739 1204.09 125.114C1221.77 123.123 1234.82 122.46 1235.04 113.182C1234.82 101.687 1225.99 94.1747 1210.91 94.1747C1195.43 94.1747 1184.39 102.562 1182.83 114.736H1156.56C1158.98 89.9657 1181.1 72.7231 1211.39 72.7231C1242.99 72.7231 1260.46 89.9656 1260.46 114.962V168.017C1260.46 171.336 1262.23 173.1 1266.21 173.1H1272.62V193.451H1260.24C1248.31 193.451 1241 188.578 1239.01 179.738C1238.52 178.449 1238.15 177.115 1237.91 175.756C1231.06 188.367 1218.3 195.879 1198.34 195.879C1171.34 195.894 1153.69 182.846 1153.9 160.927ZM1235.04 149.432V133.08C1230.62 139.928 1219.34 141.482 1206.96 143.02C1192.37 144.801 1180.21 146.777 1180.21 159.162C1180.21 169.329 1188.4 175.303 1203.65 175.303C1221.56 175.333 1235.04 165.166 1235.04 149.462V149.432Z" fill="#000000"/>
<path d="M1285.45 193.466V76.2988H1306.44L1308.66 93.5415C1315.95 81.3828 1330.76 72.7537 1348.23 72.7537C1373.21 72.7537 1389.56 89.5587 1389.56 115.867V193.466H1363.48V117.18C1363.48 104.131 1354.85 95.5178 1340.27 95.5178C1323.25 95.5178 1311.75 107.223 1311.6 122.475V193.375L1285.45 193.466Z" fill="#000000"/>
<path d="M1403.94 134.211C1403.94 98.0068 1426.27 72.7538 1457.43 72.7538C1474.03 72.7538 1487.73 79.6027 1495.9 90.6601V27.6646H1522V193.466H1500.99L1498.56 172.679C1491.93 187.492 1477.33 196.815 1458.32 196.815C1426.71 196.77 1403.94 171.125 1403.94 134.211ZM1495.96 133.985C1495.96 110.784 1482.7 94.6428 1463.69 94.6428C1444.23 94.6428 1430.75 110.995 1430.75 134.438C1430.75 157.88 1444.02 174.67 1463.26 174.67C1482.49 174.67 1495.9 157.91 1495.9 133.985H1495.96Z" fill="#000000"/>
<path d="M1018.16 169.552C1018.16 167.964 1017.32 166.495 1015.94 165.701L1001.45 157.335C1000.08 156.541 998.384 156.544 997.012 157.343L982.413 165.842C981.055 166.632 980.218 168.083 980.212 169.653L980.152 186.546C980.146 188.133 980.991 189.603 982.366 190.397L996.857 198.763C998.231 199.556 999.926 199.554 1001.3 198.755L1015.9 190.258C1017.26 189.467 1018.1 188.017 1018.1 186.446L1018.16 169.552Z" fill="#000000"/>
<path fill-rule="evenodd" clip-rule="evenodd" d="M606.855 97.5847C610.602 99.7479 612.904 103.751 612.889 108.078L612.706 161.286C612.692 165.568 610.409 169.522 606.708 171.675L560.719 198.438C556.98 200.614 552.362 200.621 548.615 198.458L502.954 172.096C499.206 169.932 496.904 165.928 496.92 161.601L497.111 108.397C497.126 104.117 499.408 100.165 503.107 98.0111L549.087 71.2437C552.827 69.0667 557.446 69.0584 561.193 71.222L606.855 97.5847ZM572.754 103.933C583.702 110.254 590.429 122.075 590.385 134.716C590.342 147.379 583.484 159.256 572.54 165.626C561.613 171.984 548.012 172.069 537.064 165.748C526.114 159.427 519.388 147.603 519.433 134.959C519.479 122.3 526.334 110.428 537.274 104.059C548.201 97.6974 561.804 97.611 572.754 103.933Z" fill="#000000"/>
</svg>
