<svg width="1521" height="214" viewBox="0 0 1521 214" fill="none" xmlns="http://www.w3.org/2000/svg">
<g clip-path="url(#clip0_1971_28320)">
<path d="M165.772 112.705C162.927 112.705 160.2 113.835 158.188 115.846C156.177 117.858 155.047 120.586 155.047 123.43V149.443C155.047 152.287 156.177 155.015 158.188 157.026C160.2 159.038 162.927 160.167 165.772 160.167C168.616 160.167 171.344 159.038 173.355 157.026C175.366 155.015 176.496 152.287 176.496 149.443V123.43C176.496 120.586 175.366 117.858 173.355 115.846C171.344 113.835 168.616 112.705 165.772 112.705V112.705Z" fill="black"/>
<path d="M135.88 184.322C129.657 184.322 124.582 179.79 124.582 174.246H128.237C128.237 177.796 131.666 180.681 135.88 180.681C140.094 180.681 143.538 177.796 143.538 174.246H147.193C147.193 179.805 142.118 184.322 135.88 184.322Z" fill="black" stroke="black" stroke-width="0.755291" stroke-miterlimit="10"/>
<path d="M105.701 112.705C102.857 112.705 100.129 113.835 98.1182 115.846C96.107 117.858 94.9771 120.586 94.9771 123.43V149.443C94.9771 152.287 96.107 155.015 98.1182 157.026C100.129 159.038 102.857 160.167 105.701 160.167C108.546 160.167 111.273 159.038 113.284 157.026C115.296 155.015 116.426 152.287 116.426 149.443V123.43C116.426 120.586 115.296 117.858 113.284 115.846C111.273 113.835 108.546 112.705 105.701 112.705Z" fill="black"/>
<ellipse cx="133.028" cy="126.055" rx="96.957" ry="85.212" fill="#1F0061"/>
<path d="M266.296 102.89C264.111 79.7885 256.637 8.85806 256.532 6.22096C256.411 3.13178 252.012 -0.801452 252.012 4.90976C252.012 8.85788 248.456 54.201 248.456 87.0065C248.079 86.449 247.853 86.1475 247.853 86.1475H239.716C225.1 50.2075 186.27 24.1229 140.133 22.5406H139.093H138.068C137.285 22.5406 136.561 22.5406 135.688 22.5406C134.874 22.5406 134.09 22.5406 133.307 22.5406H132.282H131.273C85.1198 24.0475 46.2749 50.2075 31.659 86.1475H24.1251L23.5374 87.0065C23.5374 54.201 19.9664 8.85788 19.9664 4.90976C19.9664 -0.801452 15.5665 3.13178 15.446 6.22096C15.3556 8.85806 7.91211 79.7885 5.69713 102.89C2.48968 107.17 0.774689 112.384 0.815153 117.733C0.815153 126.277 6.46558 135.379 13.4119 135.379C15.1778 140.313 17.5841 144.995 20.5691 149.303H31.7343C46.8022 186.403 87.6964 213 135.703 213C183.709 213 224.603 186.403 239.671 149.303H251.379C254.357 144.991 256.763 140.31 258.536 135.379C265.482 135.379 271.118 126.337 271.118 117.733C271.172 112.392 269.479 107.179 266.296 102.89V102.89ZM135.688 206.565C85.843 206.565 45.4462 174.106 45.4462 134.052C45.4462 104.095 68.0478 78.3869 100.278 67.3261L106.17 81.9133C106.677 83.1645 107.545 84.2357 108.665 84.9901C109.784 85.7445 111.103 86.1473 112.453 86.1475H159.073C160.423 86.1473 161.742 85.7445 162.861 84.9901C163.981 84.2357 164.849 83.1645 165.356 81.9133L171.233 67.3865C203.388 78.4774 225.914 104.14 225.914 134.052C225.914 174.106 185.517 206.565 135.688 206.565Z" fill="#F6C349"/>
<path d="M158.431 116.186C160.343 114.273 162.937 113.199 165.642 113.199C168.347 113.199 170.941 114.273 172.853 116.186C174.766 118.099 175.84 120.693 175.84 123.398V149.347C175.84 152.052 174.766 154.646 172.853 156.559C170.941 158.472 168.347 159.546 165.642 159.546C162.937 159.546 160.343 158.472 158.431 156.559C156.518 154.646 155.444 152.052 155.444 149.347V123.398C155.444 120.693 156.518 118.099 158.431 116.186Z" fill="white" stroke="white"/>
<path d="M135.818 184.142C129.61 184.142 124.547 179.621 124.547 174.091H128.193C128.193 177.632 131.614 180.511 135.818 180.511C140.022 180.511 143.457 177.632 143.457 174.091H147.103C147.103 179.637 142.041 184.142 135.818 184.142Z" fill="white" stroke="white" stroke-width="0.5" stroke-miterlimit="10"/>
<path d="M98.5042 116.186C100.417 114.273 103.011 113.199 105.715 113.199C108.42 113.199 111.014 114.273 112.927 116.186C114.839 118.099 115.914 120.693 115.914 123.398V149.347C115.914 152.052 114.839 154.646 112.927 156.559C111.014 158.472 108.42 159.546 105.715 159.546C103.011 159.546 100.417 158.472 98.5042 156.559C96.5916 154.646 95.5171 152.052 95.5171 149.347V123.398C95.5171 120.693 96.5916 118.099 98.5042 116.186Z" fill="white" stroke="white"/>
</g>
<path d="M329.972 117.006C329.972 70.1365 359.581 36.7681 407.774 36.7681C448.003 36.7681 475.652 60.1951 482.274 99.7637H455.123C450.266 75.4463 432.361 60.6326 407.82 60.6326C376.656 60.6326 357.198 82.5215 357.198 117.006C357.198 152.381 376.656 174.044 407.82 174.044C432.799 174.044 450.266 159.667 455.123 135.139H482.274C475.2 175.371 448.23 198.134 407.774 198.134C360.245 198.104 329.972 165.4 329.972 117.006Z" fill="#1F0061"/>
<path d="M630.367 194.801V29H656.447V194.801H630.367Z" fill="#1F0061"/>
<path d="M679.453 194.801V29H705.533V194.801H679.453Z" fill="#1F0061"/>
<path d="M722.38 162.262C722.606 134.852 749.787 129.074 772.548 126.45C790.242 124.458 803.274 123.795 803.501 114.518C803.274 103.023 794.45 95.5101 779.366 95.5101C763.89 95.5101 752.834 103.897 751.295 116.071H724.989C727.418 91.3012 749.515 74.0586 779.804 74.0586C811.48 74.0586 828.872 91.301 828.872 116.297V169.353C828.872 172.671 830.652 174.436 834.619 174.436H841.03V194.786H828.661C816.714 194.786 809.429 189.914 807.438 181.074C806.938 179.787 806.569 178.452 806.337 177.091C799.474 189.702 786.652 197.215 766.772 197.215C739.802 197.23 722.108 184.181 722.38 162.262ZM803.501 150.767V134.415C799.081 141.264 787.814 142.817 775.43 144.356C760.843 146.136 748.686 148.112 748.686 160.497C748.686 170.665 756.862 176.638 772.112 176.638C789.971 176.668 803.456 166.501 803.456 150.797L803.501 150.767Z" fill="#1F0061"/>
<path d="M877.745 174.014L875.317 194.801H854.32V29H880.4V92.8706C888.802 81.3757 902.724 74.0745 919.301 74.0745C950.254 74.0745 972.095 99.2815 972.095 135.531C972.095 172.445 950.208 198.09 919.045 198.09C900.507 198.105 885.031 188.828 877.745 174.014ZM945.382 135.547C945.382 112.331 932.349 96.2044 913.344 96.2044C894.112 96.2044 880.4 112.12 880.4 134.883C880.4 159.02 894.112 176.005 913.344 176.005C932.334 176.005 945.367 159.427 945.367 135.547H945.382Z" fill="#1F0061"/>
<path d="M1037.11 194.802V40.0728H1063.64V170.952H1142.56V194.832L1037.11 194.802Z" fill="#1F0061"/>
<path d="M1152.94 162.262C1153.16 134.852 1180.36 129.074 1203.12 126.45C1220.8 124.458 1233.85 123.795 1234.07 114.518C1233.85 103.023 1225.02 95.5101 1209.94 95.5101C1194.46 95.5101 1183.42 103.897 1181.87 116.071H1155.59C1158.02 91.3012 1180.13 74.0586 1210.42 74.0586C1242.02 74.0586 1259.49 91.301 1259.49 116.297V169.353C1259.49 172.671 1261.25 174.436 1265.24 174.436H1271.65V194.786H1259.26C1247.33 194.786 1240.03 189.914 1238.04 181.074C1237.55 179.785 1237.18 178.451 1236.94 177.091C1230.09 189.702 1217.33 197.215 1197.37 197.215C1170.37 197.23 1152.73 184.181 1152.94 162.262ZM1234.07 150.767V134.415C1229.65 141.264 1218.37 142.817 1205.99 144.356C1191.4 146.136 1179.24 148.112 1179.24 160.497C1179.24 170.665 1187.43 176.638 1202.68 176.638C1220.59 176.668 1234.07 166.501 1234.07 150.797V150.767Z" fill="#1F0061"/>
<path d="M1284.47 194.801V77.6343H1305.47L1307.68 94.877C1314.97 82.7183 1329.78 74.0891 1347.25 74.0891C1372.23 74.0891 1388.58 90.8942 1388.58 117.203V194.801H1362.5V118.515C1362.5 105.467 1353.87 96.8532 1339.28 96.8532C1322.27 96.8532 1310.77 108.559 1310.62 123.81V194.711L1284.47 194.801Z" fill="#1F0061"/>
<path d="M1402.95 135.547C1402.95 99.3423 1425.28 74.0892 1456.44 74.0892C1473.03 74.0892 1486.73 80.9381 1494.9 91.9956V29H1521V194.801H1499.99L1497.56 174.014C1490.94 188.828 1476.34 198.151 1457.33 198.151C1425.72 198.105 1402.95 172.46 1402.95 135.547ZM1494.97 135.321C1494.97 112.12 1481.71 95.9783 1462.7 95.9783C1443.24 95.9783 1429.76 112.331 1429.76 135.773C1429.76 159.215 1443.03 176.005 1462.26 176.005C1481.49 176.005 1494.9 159.246 1494.9 135.321H1494.97Z" fill="#1F0061"/>
<path d="M1017.21 170.887C1017.21 169.3 1016.37 167.831 1014.99 167.037L1000.5 158.671C999.13 157.877 997.435 157.88 996.063 158.679L981.465 167.178C980.108 167.968 979.271 169.418 979.265 170.989L979.204 187.881C979.199 189.469 980.043 190.938 981.418 191.732L995.908 200.098C997.282 200.892 998.977 200.889 1000.35 200.091L1014.95 191.593C1016.31 190.803 1017.14 189.353 1017.15 187.781L1017.21 170.887Z" fill="#1F0061"/>
<path fill-rule="evenodd" clip-rule="evenodd" d="M605.944 98.9195C609.691 101.083 611.993 105.086 611.978 109.413L611.795 162.621C611.781 166.903 609.498 170.856 605.798 173.01L559.814 199.772C556.074 201.948 551.456 201.956 547.71 199.793L502.054 173.431C498.306 171.267 496.004 167.263 496.02 162.935L496.211 109.733C496.226 105.452 498.508 101.5 502.207 99.3465L548.182 72.5793C551.922 70.4022 556.54 70.3939 560.288 72.5576L605.944 98.9195ZM571.847 105.269C582.794 111.589 589.52 123.411 589.477 136.052C589.433 148.715 582.576 160.593 571.633 166.962C560.708 173.32 547.108 173.405 536.161 167.084C525.212 160.762 518.486 148.938 518.531 136.295C518.577 123.636 525.431 111.763 536.37 105.394C547.296 99.0333 560.898 98.9467 571.847 105.269Z" fill="#1F0061"/>
<defs>
<clipPath id="clip0_1971_28320">
<rect width="271.977" height="214" fill="white"/>
</clipPath>
</defs>
</svg>
