<?xml version="1.0" encoding="UTF-8" standalone="no"?>
<svg
   width="1000"
   height="1000"
   viewBox="0 0 1000 1000"
   fill="none"
   version="1.1"
   id="svg4"
   sodipodi:docname="Logo-Mark-Color-Square.svg"
   inkscape:version="1.3 (0e150ed6c4, 2023-07-21)"
   inkscape:export-filename="Logo-Mark-Color-Square.png"
   inkscape:export-xdpi="96"
   inkscape:export-ydpi="96"
   xmlns:inkscape="http://www.inkscape.org/namespaces/inkscape"
   xmlns:sodipodi="http://sodipodi.sourceforge.net/DTD/sodipodi-0.dtd"
   xmlns="http://www.w3.org/2000/svg"
   xmlns:svg="http://www.w3.org/2000/svg">
  <defs
     id="defs4" />
  <sodipodi:namedview
     id="namedview4"
     pagecolor="#ffffff"
     bordercolor="#000000"
     borderopacity="0.25"
     inkscape:showpageshadow="2"
     inkscape:pageopacity="0.0"
     inkscape:pagecheckerboard="false"
     inkscape:deskcolor="#d1d1d1"
     showguides="true"
     inkscape:lockguides="false"
     inkscape:zoom="0.70710678"
     inkscape:cx="439.82042"
     inkscape:cy="552.2504"
     inkscape:window-width="1920"
     inkscape:window-height="1017"
     inkscape:window-x="1912"
     inkscape:window-y="43"
     inkscape:window-maximized="1"
     inkscape:current-layer="svg4" />
  <g
     id="g7"
     transform="translate(6.3074763e-5,109.73301)">
    <ellipse
       cx="489.125"
       cy="458.90399"
       rx="358.69601"
       ry="315.21701"
       fill="#1f0061"
       id="ellipse1" />
    <path
       d="M 982.157,373.212 C 974.075,287.756 946.426,25.3694 946.035,15.6142 945.589,4.18669 929.312,-10.3632 929.312,10.7638 c 0,14.605 -13.155,182.3392 -13.155,303.6942 -1.394,-2.063 -2.23,-3.178 -2.23,-3.178 H 883.825 C 829.753,178.33 686.101,81.8373 515.412,75.9841 h -3.846 -3.791 c -2.898,0 -5.574,0 -8.808,0 -3.01,0 -5.908,0 -8.807,0 h -3.79 -3.735 C 311.891,81.5586 168.182,178.33 114.111,311.28 H 86.2385 l -2.1741,3.178 c 0,-121.355 -13.2113,-289.0892 -13.2113,-303.6942 0,-21.127 -16.2773,-6.57711 -16.7232,4.8504 C 53.7954,25.3694 26.258,287.756 18.0636,373.212 6.19754,389.045 -0.147109,408.335 0.00258947,428.12 c 0,31.607 20.90391053,65.277 46.60201053,65.277 6.5329,18.254 15.4352,35.571 26.4784,51.507 h 41.306 c 55.744,137.242 207.033,235.63 384.634,235.63 177.601,0 328.89,-98.388 384.634,-235.63 h 43.314 c 11.018,-15.951 19.918,-33.265 26.478,-51.507 25.698,0 46.546,-33.447 46.546,-65.277 0.205,-19.758 -6.062,-39.041 -17.838,-54.908 z m -483.19,383.52 c -184.401,0 -333.85,-120.074 -333.85,-268.242 0,-110.819 83.615,-205.918 202.852,-246.835 l 21.796,53.962 c 1.875,4.628 5.089,8.591 9.23,11.381 4.142,2.791 9.022,4.281 14.015,4.282 h 172.472 c 4.994,-10e-4 9.874,-1.491 14.015,-4.282 4.141,-2.79 7.355,-6.753 9.231,-11.381 l 21.74,-53.738 c 118.958,41.027 202.295,135.959 202.295,246.611 0,148.168 -149.45,268.242 -333.796,268.242 z"
       fill="#f6c349"
       id="path1" />
    <path
       d="m 583.058,422.353 c 7.088,-7.088 16.701,-11.071 26.725,-11.071 10.024,0 19.638,3.983 26.726,11.071 7.088,7.088 11.07,16.701 11.07,26.725 v 95.992 c 0,10.023 -3.982,19.637 -11.07,26.725 -7.088,7.088 -16.702,11.069 -26.726,11.069 -10.024,0 -19.637,-3.981 -26.725,-11.069 -7.088,-7.088 -11.07,-16.702 -11.07,-26.725 v -95.992 c 0,-10.024 3.982,-19.637 11.07,-26.725 z"
       fill="#ffffff"
       stroke="#ffffff"
       stroke-width="3.56559"
       id="path2" />
    <path
       d="m 499.45,673.782 c -22.966,0 -41.696,-16.722 -41.696,-37.18 h 13.49 c 0,13.099 12.654,23.747 28.206,23.747 15.553,0 28.262,-10.648 28.262,-23.747 h 13.491 c 0,20.513 -18.73,37.18 -41.753,37.18 z"
       fill="#ffffff"
       stroke="#ffffff"
       stroke-width="1.7828"
       stroke-miterlimit="10"
       id="path3" />
    <path
       d="m 361.359,422.353 c 7.088,-7.088 16.702,-11.071 26.726,-11.071 10.024,0 19.637,3.983 26.725,11.071 7.088,7.088 11.07,16.701 11.07,26.725 v 95.992 c 0,10.023 -3.982,19.637 -11.07,26.725 -7.088,7.088 -16.701,11.069 -26.725,11.069 -10.024,0 -19.638,-3.981 -26.726,-11.069 -7.088,-7.088 -11.07,-16.702 -11.07,-26.725 v -95.992 c 0,-10.024 3.982,-19.637 11.07,-26.725 z"
       fill="#ffffff"
       stroke="#ffffff"
       stroke-width="3.56559"
       id="path4" />
  </g>
</svg>
